<svg xmlns="http://www.w3.org/2000/svg" xml:space="preserve" id="Layer_1" x="0" y="0" version="1.1" viewBox="0 0 512 512"><style>.st0{fill:#c0bc01}.st1{fill:#fff}</style><g id="XMLID_1_"><path id="XMLID_3_" d="M0 96.11h450.14v317.3H0z" class="st0"/><path id="XMLID_4_" d="M57.93 393.07c-14.31-14.45-23-34.65-23-58.07 0-23.43 8.56-43.63 23-58.07 14.31-14.45 34.51-23 57.37-23 19.22 0 39.84 7.15 53.44 24.41l.28.42-14.45 10.8-.28-.42c-5.89-9.82-23-19.92-39-19.92-39.14 0-62.42 30.72-62.42 65.65 0 35.07 23.43 65.65 62.42 65.65 15.85 0 32.12-5.05 43.48-22.72l.28-.42 13.19 9.4-.28.42.28-.42.42.28-.28.42c-10.24 15.99-31.7 28.34-57.09 28.34-22.99.11-43.05-8.44-57.36-22.75" class="st1"/><path id="XMLID_5_" d="m292.33 380.58-1.12-3.09 14.87-6.73 1.4 3.51c6.17 15.29 16.55 24.97 33.24 25.11 8.98 0 17.53-3.51 23.71-9.4 6.17-5.89 10.1-13.89 10.1-22.86 0-7.29-3.51-12.2-8.98-16.55s-12.91-7.72-19.64-11.08l-27.49-14.59h-.14c-10.8-6.59-17.39-16.97-17.39-30.16 0-12.06 4.35-22.72 11.92-30.16 7.57-7.43 18.24-11.78 30.44-11.78 16.55 0 32.12 8.84 40.12 23.15l1.4 2.67-9.12 7.57-3.09 2.52-2.1-3.37c-6.59-10.1-14.73-16.13-27.77-16.27-14.31 0-24.97 11.36-24.97 25.39 0 6.73 2.95 11.22 7.72 15.15s11.36 7.01 17.67 9.96l29.04 15.15.14.14c12.2 7.57 19.08 18.52 18.94 33.1-.14 27.49-24.69 47.55-51.06 47.55-22.59 0-40.4-14.31-47.84-34.93" class="st1"/><path id="XMLID_6_" d="M233.56 254.2 172.4 413.27h18.23l42.79-114.33 42.78 114.33h18.09z" class="st1"/><path id="XMLID_7_" d="M450.14 251.39v45.59l43.34 116.29H512z" class="st0"/><path id="XMLID_8_" d="M450.14 251.39 388 413.27h18.51l43.63-116.43v.14z" class="st1"/></g></svg>